<svg width="308" height="51" viewBox="0 0 308 51" fill="none" xmlns="http://www.w3.org/2000/svg">
<rect width="308" height="51" fill="black"/>
<path d="M23.3303 39V38.04L26.8503 37.24V26.02L18.8703 11.92C18.5503 11.3467 18.2436 10.9 17.9503 10.58C17.6569 10.2467 17.2636 10 16.7703 9.84C16.2903 9.68 15.5903 9.56667 14.6703 9.5V8.54H28.0903V9.5C26.0369 9.63333 24.7703 9.89333 24.2903 10.28C23.8236 10.6667 23.8769 11.4267 24.4503 12.56L30.8103 24H30.9503L36.3103 13.82C36.9503 12.5133 36.9636 11.4933 36.3503 10.76C35.7369 10.0267 34.5103 9.60666 32.6703 9.5V8.54H43.9503V9.5C42.9369 9.64667 42.1303 9.83333 41.5303 10.06C40.9303 10.2733 40.4569 10.5467 40.1103 10.88C39.7636 11.2133 39.4569 11.6267 39.1903 12.12C38.9236 12.6133 38.6036 13.2067 38.2303 13.9L31.3503 26.64V37.24L34.8303 38.04V39H23.3303ZM46.1634 39.42C44.7367 39.42 43.5767 38.9733 42.6834 38.08C41.8034 37.1867 41.3634 36.0267 41.3634 34.6C41.3634 33.4267 41.7234 32.4133 42.4434 31.56C43.1634 30.7067 44.3234 29.96 45.9234 29.32C47.5367 28.6667 49.6634 28.0733 52.3034 27.54V23.8C52.3034 22.1067 52.0701 20.92 51.6034 20.24C51.1501 19.56 50.3634 19.22 49.2434 19.22C48.1367 19.22 47.2567 19.4867 46.6034 20.02C45.9501 20.5533 45.6234 21.2733 45.6234 22.18C45.6234 22.4333 45.6367 22.6867 45.6634 22.94C45.7034 23.18 45.7234 23.4133 45.7234 23.64C45.7234 24.32 45.5167 24.88 45.1034 25.32C44.7034 25.76 44.1901 25.98 43.5634 25.98C42.9901 25.98 42.5234 25.7933 42.1634 25.42C41.8167 25.0467 41.6434 24.56 41.6434 23.96C41.6434 23.0933 42.0167 22.2067 42.7634 21.3C43.5234 20.38 44.5234 19.5933 45.7634 18.94C47.4167 18.06 49.2101 17.62 51.1434 17.62C52.3034 17.62 53.2834 17.8 54.0834 18.16C54.8967 18.52 55.4834 19.0333 55.8434 19.7C56.0567 20.1533 56.1967 20.7267 56.2634 21.42C56.3434 22.1133 56.3834 23.2733 56.3834 24.9V33.84C56.3834 35.1333 56.4834 36.0133 56.6834 36.48C56.8967 36.9467 57.2901 37.18 57.8634 37.18C58.5167 37.18 59.1501 36.8067 59.7634 36.06L60.4834 36.74C59.8301 37.6867 59.1634 38.3733 58.4834 38.8C57.8167 39.2133 57.0367 39.42 56.1434 39.42C55.0634 39.42 54.2234 39.1267 53.6234 38.54C53.0234 37.9533 52.6234 37.06 52.4234 35.86H52.3034C51.5434 36.9533 50.6234 37.82 49.5434 38.46C48.4634 39.1 47.3367 39.42 46.1634 39.42ZM48.1634 36.88C48.9901 36.88 49.7634 36.6667 50.4834 36.24C51.2034 35.8 51.8101 35.1933 52.3034 34.42V28.78C50.5167 29.1267 49.1101 29.5067 48.0834 29.92C47.0701 30.3333 46.3501 30.84 45.9234 31.44C45.5101 32.0267 45.3034 32.7667 45.3034 33.66C45.3034 34.6867 45.5434 35.48 46.0234 36.04C46.5167 36.6 47.2301 36.88 48.1634 36.88ZM61.4571 39V38.12L64.4971 37.5V9.7L61.4971 8.64V8.02L68.1571 6.14H68.5771V37.5L71.5771 38.12V39H61.4571ZM83.9521 39.42C82.0188 39.42 80.3188 38.98 78.8521 38.1C77.3988 37.2067 76.2655 35.9667 75.4521 34.38C74.6521 32.78 74.2521 30.9333 74.2521 28.84C74.2521 26.6133 74.6988 24.66 75.5921 22.98C76.4988 21.3 77.7588 19.9867 79.3721 19.04C80.9988 18.0933 82.8788 17.62 85.0121 17.62C87.6521 17.62 89.6721 18.3867 91.0721 19.92C92.4855 21.4533 93.2188 23.7 93.2721 26.66L92.9921 26.9H77.4921V25.74L88.6921 25.34C88.7855 24.9933 88.8321 24.4667 88.8321 23.76C88.8321 20.56 87.4255 18.96 84.6121 18.96C82.6788 18.96 81.1855 19.72 80.1321 21.24C79.0921 22.7467 78.5721 24.8867 78.5721 27.66C78.5721 33.46 80.8255 36.36 85.3321 36.36C88.2655 36.36 90.5121 35.2933 92.0721 33.16L92.8121 33.62C92.1188 35.46 90.9921 36.8867 89.4321 37.9C87.8855 38.9133 86.0588 39.42 83.9521 39.42Z" fill="#F2B70A"/>
<path d="M114.529 39.27C113.709 39.27 112.909 39.15 112.129 38.91C111.359 38.67 110.544 38.295 109.684 37.785L108.499 39H107.884L107.329 31.395L108.139 31.23C108.739 33.58 109.529 35.285 110.509 36.345C111.499 37.405 112.804 37.935 114.424 37.935C115.784 37.935 116.859 37.61 117.649 36.96C118.439 36.3 118.834 35.41 118.834 34.29C118.834 33.41 118.559 32.625 118.009 31.935C117.469 31.235 116.579 30.535 115.339 29.835L113.044 28.62C111.174 27.61 109.834 26.605 109.024 25.605C108.214 24.605 107.809 23.44 107.809 22.11C107.809 20.91 108.104 19.84 108.694 18.9C109.284 17.95 110.089 17.205 111.109 16.665C112.139 16.115 113.294 15.84 114.574 15.84C116.324 15.84 117.849 16.455 119.149 17.685L120.064 16.125H120.709L120.979 22.68H120.124C119.654 20.81 118.974 19.43 118.084 18.54C117.204 17.64 116.079 17.19 114.709 17.19C113.599 17.19 112.719 17.485 112.069 18.075C111.429 18.665 111.109 19.475 111.109 20.505C111.109 21.435 111.414 22.265 112.024 22.995C112.644 23.725 113.684 24.475 115.144 25.245L117.379 26.445C118.909 27.255 120.014 28.155 120.694 29.145C121.384 30.135 121.729 31.27 121.729 32.55C121.729 33.82 121.409 34.965 120.769 35.985C120.139 36.995 119.279 37.795 118.189 38.385C117.109 38.975 115.889 39.27 114.529 39.27ZM131.783 39.315C130.423 39.315 129.213 38.985 128.153 38.325C127.103 37.655 126.278 36.73 125.678 35.55C125.088 34.36 124.793 32.99 124.793 31.44C124.793 29.8 125.118 28.345 125.768 27.075C126.428 25.795 127.333 24.79 128.483 24.06C129.643 23.33 130.968 22.965 132.458 22.965C133.508 22.965 134.448 23.14 135.278 23.49C136.108 23.83 136.763 24.285 137.243 24.855C137.733 25.415 137.978 26.03 137.978 26.7C137.978 27.25 137.838 27.675 137.558 27.975C137.278 28.275 136.898 28.425 136.418 28.425C135.898 28.425 135.508 28.27 135.248 27.96C134.988 27.65 134.818 27.165 134.738 26.505C134.628 25.515 134.413 24.85 134.093 24.51C133.773 24.17 133.258 24 132.548 24C131.128 24 130.023 24.61 129.233 25.83C128.453 27.04 128.063 28.65 128.063 30.66C128.063 32.68 128.473 34.23 129.293 35.31C130.113 36.39 131.278 36.93 132.788 36.93C133.788 36.93 134.683 36.745 135.473 36.375C136.263 36.005 136.968 35.39 137.588 34.53L138.188 34.875C137.638 36.295 136.813 37.39 135.713 38.16C134.613 38.93 133.303 39.315 131.783 39.315ZM139.88 39V38.34L142.145 37.875V17.04L139.925 16.23V15.78L144.845 14.355H145.19V37.875L147.395 38.34V39H139.88ZM149.9 39V38.34L152.09 37.905V28.275C152.09 27.085 151.85 26.2 151.37 25.62C150.89 25.03 150.115 24.735 149.045 24.735C148.285 24.735 147.56 24.915 146.87 25.275C146.18 25.635 145.53 26.135 144.92 26.775V25.56C145.84 24.71 146.815 24.065 147.845 23.625C148.875 23.185 149.885 22.965 150.875 22.965C153.725 22.965 155.15 24.31 155.15 27V37.905L157.37 38.34V39H149.9ZM167.194 39.315C165.654 39.315 164.289 38.96 163.099 38.25C161.909 37.53 160.974 36.555 160.294 35.325C159.624 34.085 159.289 32.69 159.289 31.14C159.289 29.58 159.624 28.185 160.294 26.955C160.974 25.725 161.909 24.755 163.099 24.045C164.289 23.325 165.654 22.965 167.194 22.965C168.734 22.965 170.094 23.325 171.274 24.045C172.464 24.755 173.399 25.725 174.079 26.955C174.759 28.185 175.099 29.58 175.099 31.14C175.099 32.69 174.759 34.085 174.079 35.325C173.399 36.555 172.464 37.53 171.274 38.25C170.094 38.96 168.734 39.315 167.194 39.315ZM167.164 37.935C167.894 37.935 168.539 37.775 169.099 37.455C169.659 37.125 170.129 36.66 170.509 36.06C170.899 35.45 171.194 34.73 171.394 33.9C171.594 33.06 171.694 32.13 171.694 31.11C171.694 30.1 171.594 29.18 171.394 28.35C171.204 27.52 170.919 26.805 170.539 26.205C170.159 25.605 169.689 25.145 169.129 24.825C168.569 24.495 167.924 24.33 167.194 24.33C166.464 24.33 165.819 24.495 165.259 24.825C164.699 25.145 164.229 25.605 163.849 26.205C163.469 26.805 163.179 27.525 162.979 28.365C162.789 29.195 162.694 30.12 162.694 31.14C162.694 32.16 162.789 33.085 162.979 33.915C163.179 34.745 163.469 35.46 163.849 36.06C164.229 36.66 164.694 37.125 165.244 37.455C165.804 37.775 166.444 37.935 167.164 37.935ZM185.592 39.315C184.052 39.315 182.687 38.96 181.497 38.25C180.307 37.53 179.372 36.555 178.692 35.325C178.022 34.085 177.687 32.69 177.687 31.14C177.687 29.58 178.022 28.185 178.692 26.955C179.372 25.725 180.307 24.755 181.497 24.045C182.687 23.325 184.052 22.965 185.592 22.965C187.132 22.965 188.492 23.325 189.672 24.045C190.862 24.755 191.797 25.725 192.477 26.955C193.157 28.185 193.497 29.58 193.497 31.14C193.497 32.69 193.157 34.085 192.477 35.325C191.797 36.555 190.862 37.53 189.672 38.25C188.492 38.96 187.132 39.315 185.592 39.315ZM185.562 37.935C186.292 37.935 186.937 37.775 187.497 37.455C188.057 37.125 188.527 36.66 188.907 36.06C189.297 35.45 189.592 34.73 189.792 33.9C189.992 33.06 190.092 32.13 190.092 31.11C190.092 30.1 189.992 29.18 189.792 28.35C189.602 27.52 189.317 26.805 188.937 26.205C188.557 25.605 188.087 25.145 187.527 24.825C186.967 24.495 186.322 24.33 185.592 24.33C184.862 24.33 184.217 24.495 183.657 24.825C183.097 25.145 182.627 25.605 182.247 26.205C181.867 26.805 181.577 27.525 181.377 28.365C181.187 29.195 181.092 30.12 181.092 31.14C181.092 32.16 181.187 33.085 181.377 33.915C181.577 34.745 181.867 35.46 182.247 36.06C182.627 36.66 183.092 37.125 183.642 37.455C184.202 37.775 184.842 37.935 185.562 37.935ZM195.456 39V38.34L197.736 37.875V17.025L195.486 16.23V15.765L200.481 14.355H200.796V37.875L203.046 38.34V39H195.456ZM220.895 39.315C219.355 39.315 217.99 38.96 216.8 38.25C215.61 37.53 214.675 36.555 213.995 35.325C213.325 34.085 212.99 32.69 212.99 31.14C212.99 29.58 213.325 28.185 213.995 26.955C214.675 25.725 215.61 24.755 216.8 24.045C217.99 23.325 219.355 22.965 220.895 22.965C222.435 22.965 223.795 23.325 224.975 24.045C226.165 24.755 227.1 25.725 227.78 26.955C228.46 28.185 228.8 29.58 228.8 31.14C228.8 32.69 228.46 34.085 227.78 35.325C227.1 36.555 226.165 37.53 224.975 38.25C223.795 38.96 222.435 39.315 220.895 39.315ZM220.865 37.935C221.595 37.935 222.24 37.775 222.8 37.455C223.36 37.125 223.83 36.66 224.21 36.06C224.6 35.45 224.895 34.73 225.095 33.9C225.295 33.06 225.395 32.13 225.395 31.11C225.395 30.1 225.295 29.18 225.095 28.35C224.905 27.52 224.62 26.805 224.24 26.205C223.86 25.605 223.39 25.145 222.83 24.825C222.27 24.495 221.625 24.33 220.895 24.33C220.165 24.33 219.52 24.495 218.96 24.825C218.4 25.145 217.93 25.605 217.55 26.205C217.17 26.805 216.88 27.525 216.68 28.365C216.49 29.195 216.395 30.12 216.395 31.14C216.395 32.16 216.49 33.085 216.68 33.915C216.88 34.745 217.17 35.46 217.55 36.06C217.93 36.66 218.395 37.125 218.945 37.455C219.505 37.775 220.145 37.935 220.865 37.935ZM231.016 39V38.385L233.296 37.905V23.685C233.296 22.605 233.306 21.715 233.326 21.015C233.356 20.305 233.401 19.72 233.461 19.26C233.531 18.79 233.626 18.38 233.746 18.03C234.016 17.29 234.451 16.645 235.051 16.095C235.651 15.545 236.351 15.12 237.151 14.82C237.961 14.51 238.801 14.355 239.671 14.355C240.801 14.355 241.751 14.6 242.521 15.09C243.291 15.57 243.676 16.19 243.676 16.95C243.676 17.39 243.536 17.755 243.256 18.045C242.976 18.325 242.606 18.465 242.146 18.465C241.656 18.465 241.301 18.305 241.081 17.985C240.861 17.655 240.706 17.29 240.616 16.89C240.496 16.36 240.331 15.975 240.121 15.735C239.921 15.495 239.586 15.375 239.116 15.375C238.666 15.375 238.246 15.485 237.856 15.705C237.476 15.915 237.171 16.28 236.941 16.8C236.751 17.25 236.606 17.86 236.506 18.63C236.406 19.39 236.356 20.39 236.356 21.63V37.905L239.566 38.385V39H231.016ZM230.626 24.285L231.001 23.265H240.211L239.851 24.285H230.626ZM246.811 39V38.28C247.841 38.11 248.616 37.905 249.136 37.665C249.656 37.415 250.046 37.08 250.306 36.66C250.566 36.23 250.821 35.665 251.071 34.965L256.816 19.08L255.976 17.175L259.096 15.555L267.016 36.45C267.186 36.91 267.371 37.26 267.571 37.5C267.781 37.74 268.076 37.915 268.456 38.025C268.836 38.135 269.371 38.22 270.061 38.28V39H260.251V38.28C261.221 38.22 261.946 38.15 262.426 38.07C262.906 37.98 263.181 37.785 263.251 37.485C263.321 37.175 263.231 36.67 262.981 35.97L257.581 21.165H257.491L252.406 35.31C252.186 35.92 252.126 36.42 252.226 36.81C252.326 37.19 252.621 37.495 253.111 37.725C253.601 37.945 254.316 38.13 255.256 38.28V39H246.811ZM253.531 30.84V29.58H261.751V30.84H253.531ZM270.667 39V38.34L272.917 37.875V25.65L270.727 24.825V24.39L275.527 22.95H275.857V26.19L275.977 26.34V37.875L279.067 38.34V39H270.667ZM275.752 27.57L275.692 26.34C276.432 25.25 277.167 24.41 277.897 23.82C278.637 23.23 279.327 22.935 279.967 22.935C280.517 22.935 280.982 23.125 281.362 23.505C281.742 23.875 281.932 24.325 281.932 24.855C281.932 25.345 281.767 25.76 281.437 26.1C281.107 26.43 280.697 26.595 280.207 26.595C279.707 26.595 279.317 26.41 279.037 26.04C278.837 25.81 278.667 25.655 278.527 25.575C278.387 25.485 278.227 25.44 278.047 25.44C277.757 25.44 277.392 25.635 276.952 26.025C276.522 26.405 276.122 26.92 275.752 27.57ZM288.619 39.315C287.509 39.315 286.664 39 286.084 38.37C285.504 37.74 285.214 36.835 285.214 35.655V24.375H283.264L283.174 23.835L287.674 19.365L288.259 19.425V23.265H292.549L292.294 24.375H288.259V35.355C288.259 36.995 288.849 37.815 290.029 37.815C290.429 37.815 290.824 37.71 291.214 37.5C291.614 37.29 291.954 37 292.234 36.63L292.759 37.095C292.299 37.775 291.699 38.315 290.959 38.715C290.229 39.115 289.449 39.315 288.619 39.315Z" fill="#FDFDFD"/>
</svg>
